<?xml version="1.0" encoding="UTF-8"?>
<svg id="Laag_1" xmlns="http://www.w3.org/2000/svg" version="1.1" viewBox="0 0 32 32">
  <!-- Generator: Adobe Illustrator 29.8.1, SVG Export Plug-In . SVG Version: 2.1.1 Build 2)  -->
  <defs>
    <style>
      .st0 {
        fill: #fff;
      }
    </style>
  </defs>
  <g id="ic-burger-white">
    <g id="ic-burger">
      <path id="Shape" class="st0" d="M28,21.25v1.17c0,.35-.24.58-.6.58H4.6c-.36,0-.6-.23-.6-.58v-1.17c0-.35.24-.58.6-.58h22.8c.36,0,.6.23.6.58ZM27.4,9H4.6c-.36,0-.6.23-.6.58v1.17c0,.35.24.58.6.58h22.8c.36,0,.6-.23.6-.58v-1.17c0-.35-.24-.58-.6-.58Z"/>
    </g>
  </g>
</svg>