<svg width="28" height="28" viewBox="0 0 28 28" fill="none" xmlns="http://www.w3.org/2000/svg">
	<path d="M14.7189 16.5299C14.1272 16.7088 13.4918 16.6767 12.9211 16.4391C12.5567 16.288 12.2302 16.0579 11.9653 15.7655C11.7004 15.473 11.5036 15.1255 11.3892 14.7479C11.2747 14.3703 11.2454 13.972 11.3033 13.5817C11.3613 13.1914 11.505 12.8187 11.7243 12.4907C11.9435 12.1626 12.2327 11.8872 12.5712 11.6843C12.9096 11.4815 13.2888 11.3561 13.6815 11.3174C14.0742 11.2787 14.4706 11.3275 14.8421 11.4603C15.2137 11.5932 15.5511 11.8068 15.8302 12.0857C16.2681 12.522 16.5408 13.0968 16.6019 13.7119C16.663 14.327 16.5087 14.9443 16.1652 15.4582C15.8218 15.9722 15.3106 16.3509 14.7189 16.5299Z" fill="white"/>
	<path fill-rule="evenodd" clip-rule="evenodd" d="M13.943 7.41442C16.079 7.41442 16.3321 7.42242 17.1757 7.46096C17.9561 7.4966 18.3793 7.62678 18.6615 7.7366C19.0089 7.86475 19.3233 8.06901 19.5815 8.33442C19.8615 8.61442 20.0339 8.88132 20.1793 9.25442C20.2891 9.5366 20.4193 9.95987 20.455 10.7402C20.4935 11.5839 20.5015 11.837 20.5015 13.973C20.5015 16.109 20.4935 16.3621 20.455 17.2057C20.4193 17.9861 20.2891 18.4093 20.1793 18.6915C20.0513 19.0384 19.847 19.3533 19.5815 19.6115C19.3015 19.8915 19.0346 20.0639 18.6615 20.2093C18.3793 20.3191 17.9561 20.4493 17.1757 20.485C16.3321 20.5235 16.0797 20.5315 13.943 20.5315C11.8062 20.5315 11.5539 20.5235 10.7102 20.485C9.92987 20.4493 9.5066 20.3191 9.22442 20.2093C8.87751 20.0813 8.5626 19.877 8.30442 19.6115C8.03896 19.3533 7.8346 19.0384 7.7066 18.6915C7.59678 18.4093 7.4666 17.9861 7.43096 17.2057C7.39242 16.3621 7.38442 16.109 7.38442 13.973C7.38442 11.837 7.39242 11.5839 7.43096 10.7402C7.4666 9.95987 7.59678 9.5366 7.7066 9.25442C7.83473 8.90699 8.039 8.59264 8.30442 8.33442C8.58442 8.05442 8.85133 7.88205 9.22442 7.7366C9.5066 7.62678 9.92987 7.4966 10.7102 7.46096C11.5539 7.42242 11.807 7.41442 13.943 7.41442ZM12.3694 10.174C11.8705 10.3806 11.4172 10.6835 11.0353 11.0653C10.2642 11.8365 9.83094 12.8824 9.83094 13.973C9.83094 15.0635 10.2642 16.1094 11.0353 16.8806C11.8065 17.6518 12.8524 18.085 13.943 18.085C15.0335 18.085 16.0794 17.6518 16.8506 16.8806C17.2324 16.4988 17.5353 16.0455 17.742 15.5466C17.9486 15.0477 18.055 14.513 18.055 13.973C18.055 13.433 17.9486 12.8983 17.742 12.3994C17.5353 11.9005 17.2324 11.4472 16.8506 11.0653C16.4688 10.6835 16.0155 10.3806 15.5166 10.174C15.0177 9.9673 14.483 9.86094 13.943 9.86094C13.403 9.86094 12.8683 9.9673 12.3694 10.174ZM19.1897 10.1577C19.1373 10.2767 19.0616 10.3841 18.967 10.4733C18.7829 10.6469 18.5385 10.742 18.2856 10.7383C18.0326 10.7346 17.791 10.6325 17.6122 10.4536C17.4333 10.2747 17.3312 10.0331 17.3275 9.78018C17.3238 9.52723 17.4188 9.2828 17.5924 9.09878C17.6817 9.00416 17.789 8.92841 17.9081 8.87601C18.0271 8.82362 18.1555 8.79565 18.2856 8.79375C18.4156 8.79185 18.5447 8.81607 18.6653 8.86497C18.7858 8.91388 18.8953 8.98647 18.9873 9.07844C19.0793 9.17042 19.1519 9.27992 19.2008 9.40046C19.2497 9.521 19.2739 9.65012 19.272 9.78018C19.2701 9.91025 19.2421 10.0386 19.1897 10.1577Z" fill="white"/>
	<path fill-rule="evenodd" clip-rule="evenodd" d="M13.943 27.3063C21.3067 27.3063 27.2763 21.3368 27.2763 13.973C27.2763 6.60919 21.3067 0.639648 13.943 0.639648C6.57916 0.639648 0.609619 6.60919 0.609619 13.973C0.609619 21.3368 6.57916 27.3063 13.943 27.3063ZM13.943 5.97296C11.7699 5.97296 11.4979 5.98169 10.6448 6.02096C9.79387 6.06023 9.21133 6.19551 8.70224 6.3926C8.16876 6.59365 7.68554 6.9086 7.28624 7.31551C6.87905 7.71501 6.56385 8.19848 6.3626 8.73223C6.16551 9.24133 6.02951 9.82314 5.99096 10.6755C5.95242 11.5279 5.94296 11.7999 5.94296 13.973C5.94296 16.1453 5.95169 16.4173 5.99096 17.2719C6.03024 18.1228 6.16551 18.7046 6.3626 19.2137C6.56356 19.7474 6.87851 20.2309 7.28551 20.6304C7.68538 21.0371 8.16909 21.3518 8.70296 21.5526C9.21205 21.7504 9.79387 21.8864 10.6448 21.925C11.4979 21.9635 11.7699 21.973 13.943 21.973C16.1161 21.973 16.3881 21.9642 17.2419 21.925C18.0928 21.8857 18.6746 21.7504 19.1837 21.5526C19.7168 21.3519 20.2004 21.0377 20.6004 20.6304C21.0072 20.2306 21.3219 19.7468 21.5226 19.213C21.7204 18.7039 21.8564 18.1221 21.895 17.2711C21.9335 16.4181 21.943 16.1461 21.943 13.973C21.943 11.8006 21.9342 11.5286 21.895 10.6741C21.8557 9.82314 21.7204 9.24133 21.5226 8.73223C21.3219 8.19842 21.0077 7.71551 20.6004 7.31623C20.2004 6.90896 19.7168 6.59405 19.1837 6.3926C18.6746 6.19551 18.0928 6.05951 17.2404 6.02096C16.3881 5.98242 16.1161 5.97296 13.943 5.97296Z" fill="white"/>
</svg>
