<svg xmlns="http://www.w3.org/2000/svg" width="22" height="22" viewBox="0 0 22 22">
<path fill="#000" fill-rule="nonzero" stroke="#000" stroke-width="0.5" d="M9.62 0c5.284 0 9.586 4.302 9.586 9.62 0 5.284-4.302 9.586-9.586 9.586C4.302 19.206 0 14.904 0 9.62 0 4.302 4.302 0 9.62 0zm0 4.708c1.999 0 3.625 1.626 3.625 3.625 0 1.355-.746 2.54-1.83 3.15 1.965.644 3.49 2.304 3.93 4.336 1.693-1.524 2.744-3.76 2.744-6.199 0-4.674-3.794-8.468-8.469-8.468-4.674 0-8.468 3.794-8.468 8.468 0 2.439 1.05 4.675 2.71 6.199.44-2.032 1.964-3.692 3.929-4.336-1.084-.61-1.83-1.795-1.83-3.15 0-1.999 1.66-3.625 3.66-3.625zm4.709 11.924v-.034c-.238-2.405-2.304-4.234-4.709-4.234-2.439 0-4.471 1.83-4.708 4.234v.034c1.32.915 2.947 1.457 4.708 1.457 1.728 0 3.354-.542 4.709-1.457zM9.62 5.86c-1.389 0-2.507 1.118-2.507 2.473 0 1.389 1.118 2.507 2.507 2.507 1.355 0 2.473-1.118 2.473-2.507 0-1.355-1.118-2.473-2.473-2.473z" transform="translate(1 1)"/>
</svg>