<svg width="28" height="28" viewBox="0 0 28 28" fill="none" xmlns="http://www.w3.org/2000/svg">
	<path d="M16.4106 13.9552L12.2677 11.5832V16.3628L16.4106 13.9552Z" fill="white"/>
	<path fill-rule="evenodd" clip-rule="evenodd" d="M13.857 27.3063C21.2208 27.3063 27.1903 21.3368 27.1903 13.973C27.1903 6.60919 21.2208 0.639648 13.857 0.639648C6.49322 0.639648 0.523682 6.60919 0.523682 13.973C0.523682 21.3368 6.49322 27.3063 13.857 27.3063ZM21.0052 9.2266C21.2534 9.4748 21.432 9.78376 21.5231 10.1225C21.857 11.3692 21.857 13.973 21.857 13.973C21.857 13.973 21.857 16.5768 21.5231 17.8234C21.3392 18.5118 20.7981 19.054 20.1088 19.2377C18.8606 19.573 13.857 19.573 13.857 19.573C13.857 19.573 8.85345 19.573 7.60524 19.2377C6.91774 19.054 6.37488 18.5118 6.19095 17.8234C5.85703 16.5768 5.85703 13.973 5.85703 13.973C5.85703 13.973 5.85703 11.3692 6.19095 10.1208C6.28174 9.78183 6.46022 9.47272 6.70846 9.22447C6.95671 8.97623 7.26599 8.79759 7.60524 8.70649C8.85345 8.37299 13.857 8.37299 13.857 8.37299C13.857 8.37299 18.8606 8.37299 20.1088 8.70827C20.4479 8.79967 20.757 8.9784 21.0052 9.2266Z" fill="white"/>
</svg>
